<svg id="Layer_1" xmlns="http://www.w3.org/2000/svg" viewBox="-25.9 373 120.9 33.1"><style>.st0{fill:#000000;}</style><path class="st0" d="M-11.1 382.8l-4.2 12h8.2l-4-12zm7.7 23.3l-2-5.8h-11.8l-2 5.8h-6.7l12-33.1h5.1l12.1 33.1h-6.7zm24.8-27.3v27.3h-6.7v-27.3H6.1V373h23.8v5.8zm27.1 4l-4.2 12h8.2l-4-12zm7.7 23.3l-2-5.8H42.4l-2 5.8h-6.7l12-33.1h5.1L63 406.1h-6.8zm27.6-27.3h-5.9v9h5.9c2.9 0 4.8-1.8 4.8-4.5s-1.9-4.5-4.8-4.5m.3 14.8h-6.2v12.5h-6.6V373h12.9c6.8 0 10.8 4.7 10.8 10.3 0 5.6-4 10.3-10.9 10.3"/></svg>
